<svg width="55" height="55" viewBox="0 0 55 55" fill="none" xmlns="http://www.w3.org/2000/svg">
<g clip-path="url(#clip0_46_810)">
<path d="M54.9998 52.7083C54.9998 53.3161 54.7583 53.899 54.3286 54.3288C53.8988 54.7586 53.3159 55 52.7081 55H2.29145C1.68367 55 1.10077 54.7586 0.671001 54.3288C0.24123 53.899 -0.000213142 53.3161 -0.000213142 52.7083C-0.000213142 52.1006 0.24123 51.5177 0.671001 51.0879C1.10077 50.6581 1.68367 50.4167 2.29145 50.4167H52.7081C53.3159 50.4167 53.8988 50.6581 54.3286 51.0879C54.7583 51.5177 54.9998 52.1006 54.9998 52.7083ZM0.666662 19.5983C0.172859 18.6824 -0.0559129 17.647 0.00602117 16.6083C0.0679552 15.5696 0.418144 14.5687 1.01729 13.7179C1.99642 12.2813 3.30768 11.1021 4.83979 10.2804L22.0296 1.33375C23.7191 0.455201 25.5955 -0.003479 27.4998 -0.003479C29.4041 -0.003479 31.2804 0.455201 32.97 1.33375L50.1575 10.2873C51.6896 11.109 53.0009 12.2882 53.98 13.7248C54.5791 14.5756 54.9293 15.5765 54.9913 16.6152C55.0532 17.6539 54.8244 18.6893 54.3306 19.6052C53.799 20.6109 53.0016 21.4514 52.0254 22.0353C51.0492 22.6192 49.9315 22.924 48.794 22.9167H48.1248V41.25H50.4165C51.0242 41.25 51.6071 41.4914 52.0369 41.9212C52.4667 42.351 52.7081 42.9339 52.7081 43.5417C52.7081 44.1495 52.4667 44.7324 52.0369 45.1621C51.6071 45.5919 51.0242 45.8333 50.4165 45.8333H4.58312C3.97533 45.8333 3.39244 45.5919 2.96267 45.1621C2.5329 44.7324 2.29145 44.1495 2.29145 43.5417C2.29145 42.9339 2.5329 42.351 2.96267 41.9212C3.39244 41.4914 3.97533 41.25 4.58312 41.25H6.87479V22.9167H6.20562C5.06703 22.9238 3.94834 22.6181 2.97159 22.0329C1.99485 21.4478 1.19755 20.6056 0.666662 19.5983ZM11.4581 41.25H18.3331V22.9167H11.4581V41.25ZM22.9165 22.9167V41.25H32.0831V22.9167H22.9165ZM43.5415 22.9167H36.6665V41.25H43.5415V22.9167ZM4.7275 17.474C4.87128 17.7391 5.08526 17.9595 5.34597 18.1111C5.60669 18.2626 5.9041 18.3395 6.20562 18.3333H48.794C49.0955 18.3395 49.3929 18.2626 49.6536 18.1111C49.9143 17.9595 50.1283 17.7391 50.2721 17.474C50.3768 17.2988 50.4275 17.0966 50.4177 16.8927C50.4079 16.6889 50.3381 16.4925 50.2171 16.3281C49.6618 15.5029 48.9158 14.8237 48.0423 14.3481L30.8548 5.39459C29.819 4.85702 28.6691 4.5764 27.5021 4.5764C26.3351 4.5764 25.1852 4.85702 24.1494 5.39459L6.96187 14.3481C6.08871 14.8253 5.34287 15.5051 4.78708 16.3304C4.66582 16.4941 4.5955 16.6898 4.5849 16.8932C4.57431 17.0966 4.6239 17.2986 4.7275 17.474Z" fill="#1d4ed8"/>
</g>
<defs>
<clipPath id="clip0_46_810">
<rect width="55" height="55" fill="white"/>
</clipPath>
</defs>
</svg>
