<svg width="55" height="55" viewBox="0 0 55 55" fill="none" xmlns="http://www.w3.org/2000/svg">
<g clip-path="url(#clip0_28_1019)">
<path d="M9.16667 25.2083H45.8333C50.8888 25.2083 55 21.0971 55 16.0417C55 10.9862 50.8888 6.875 45.8333 6.875H9.16667C4.11125 6.875 0 10.9862 0 16.0417C0 21.0971 4.11125 25.2083 9.16667 25.2083ZM50.4167 16.0417C50.4167 18.5694 48.361 20.625 45.8333 20.625H36.6667V11.4583H45.8333C48.361 11.4583 50.4167 13.514 50.4167 16.0417ZM9.16667 11.4583H32.0833V20.625H9.16667C6.63896 20.625 4.58333 18.5694 4.58333 16.0417C4.58333 13.514 6.63896 11.4583 9.16667 11.4583ZM45.8333 29.7917H9.16667C4.11125 29.7917 0 33.9029 0 38.9583C0 44.0138 4.11125 48.125 9.16667 48.125H45.8333C50.8888 48.125 55 44.0138 55 38.9583C55 33.9029 50.8888 29.7917 45.8333 29.7917ZM4.58333 38.9583C4.58333 36.4306 6.63896 34.375 9.16667 34.375H18.3333V43.5417H9.16667C6.63896 43.5417 4.58333 41.486 4.58333 38.9583ZM45.8333 43.5417H22.9167V34.375H45.8333C48.361 34.375 50.4167 36.4306 50.4167 38.9583C50.4167 41.486 48.361 43.5417 45.8333 43.5417Z" fill="#1d4ed8"/>
</g>
<defs>
<clipPath id="clip0_28_1019">
<rect width="55" height="55" fill="white"/>
</clipPath>
</defs>
</svg>
