<svg width="55" height="55" viewBox="0 0 55 55" fill="none" xmlns="http://www.w3.org/2000/svg">
<g clip-path="url(#clip0_28_1013)">
<path d="M18.3333 9.16661C18.3333 4.10203 14.2313 -5.34877e-05 9.16667 -5.34877e-05C4.10208 -5.34877e-05 0 4.10203 0 9.16661V16.0416C0 21.1062 4.10208 25.2083 9.16667 25.2083C14.2313 25.2083 18.3333 21.1062 18.3333 16.0416V9.16661ZM13.75 16.0416C13.75 18.5624 11.6875 20.6249 9.16667 20.6249C6.64583 20.6249 4.58333 18.5624 4.58333 16.0416V9.16661C4.58333 6.64578 6.64583 4.58328 9.16667 4.58328C11.6875 4.58328 13.75 6.64578 13.75 9.16661V16.0416ZM27.5 32.0833C27.5 33.3437 26.4688 34.3749 25.2083 34.3749C22.6875 34.3749 20.625 36.4374 20.625 38.9583V45.8333C20.625 47.1395 21.175 48.377 22.1604 49.2479C23.1 50.0958 23.1917 51.5395 22.3438 52.4791C21.8854 52.9833 21.2667 53.2354 20.625 53.2354C20.075 53.2354 19.525 53.052 19.0896 52.6624C17.1417 50.9208 16.0417 48.4458 16.0417 45.8333V38.9583C16.0417 33.8937 20.1438 29.7916 25.2083 29.7916C26.4688 29.7916 27.5 30.8229 27.5 32.0833ZM22.5729 9.51036C21.6792 8.61661 21.6792 7.17286 22.5729 6.27911L28.1646 0.66453C28.8292 -5.35175e-05 29.8146 -0.183387 30.6625 0.160363C31.5104 0.504113 32.0833 1.35203 32.0833 2.2687V20.6249C32.0833 21.8854 31.0521 22.9166 29.7917 22.9166C28.5313 22.9166 27.5 21.8854 27.5 20.6249V7.81453L25.8042 9.51036C24.9104 10.4041 23.4667 10.4041 22.5729 9.51036ZM11.4583 32.0833V52.7083C11.4583 53.9687 10.4271 54.9999 9.16667 54.9999C7.90625 54.9999 6.875 53.9687 6.875 52.7083V37.6062L5.17917 39.302C4.28542 40.1958 2.84167 40.1958 1.94792 39.302C1.05417 38.4083 1.05417 36.9645 1.94792 36.0708L7.53958 30.4791C8.20417 29.8145 9.18958 29.6312 10.0375 29.9749C10.8854 30.3187 11.4583 31.1666 11.4583 32.0833ZM50.4167 33.3666V29.7916C50.4167 24.727 46.3146 20.6249 41.25 20.6249C36.1854 20.6249 32.0833 24.727 32.0833 29.7916V33.3666C29.3563 34.9479 27.5 37.8812 27.5 41.2499V45.8333C27.5 50.8979 31.6021 54.9999 36.6667 54.9999H45.8333C50.8979 54.9999 55 50.8979 55 45.8333V41.2499C55 37.8812 53.1438 34.9479 50.4167 33.3666ZM36.6667 29.7916C36.6667 27.2708 38.7292 25.2083 41.25 25.2083C43.7708 25.2083 45.8333 27.2708 45.8333 29.7916V32.0833H36.6667V29.7916ZM50.4167 45.8333C50.4167 48.3541 48.3542 50.4166 45.8333 50.4166H36.6667C34.1458 50.4166 32.0833 48.3541 32.0833 45.8333V41.2499C32.0833 38.7291 34.1458 36.6666 36.6667 36.6666H45.8333C48.3542 36.6666 50.4167 38.7291 50.4167 41.2499V45.8333ZM44.6875 43.5416C44.6875 45.4437 43.1521 46.9791 41.25 46.9791C39.3479 46.9791 37.8125 45.4437 37.8125 43.5416C37.8125 41.6395 39.3479 40.1041 41.25 40.1041C43.1521 40.1041 44.6875 41.6395 44.6875 43.5416Z" fill="#1d4ed8"/>
</g>
<defs>
<clipPath id="clip0_28_1013">
<rect width="55" height="55" fill="white"/>
</clipPath>
</defs>
</svg>
