<svg width="57" height="55" viewBox="0 0 57 55" fill="none" xmlns="http://www.w3.org/2000/svg">
<g clip-path="url(#clip0_28_1029)">
<path d="M45.7031 0H29.2969C23.482 0 18.75 4.62688 18.75 10.3125V35.5208C18.75 39.9438 22.4297 43.5417 26.9531 43.5417H45.7031C51.518 43.5417 56.25 38.9148 56.25 33.2292V10.3125C56.25 4.62688 51.518 0 45.7031 0ZM29.2969 4.58333H45.7031C48.9328 4.58333 51.5625 7.15229 51.5625 10.3125V27.5H26.9531C25.6969 27.5 24.5039 27.7796 23.4375 28.2746V10.3125C23.4375 7.15229 26.0672 4.58333 29.2969 4.58333ZM45.7031 38.9583H26.9531C25.0148 38.9583 23.4375 37.416 23.4375 35.5208C23.4375 33.6256 25.0148 32.0833 26.9531 32.0833H51.5625V33.2292C51.5625 36.3894 48.9328 38.9583 45.7031 38.9583ZM34.3664 48.8125C35.2734 49.7177 35.2594 51.166 34.3336 52.0529C32.3508 53.9527 29.7305 55 26.9531 55H8.20312C3.67969 55 0 51.4021 0 46.9792V21.7708C0 16.0852 4.73203 11.4583 10.5469 11.4583H11.7188C13.0125 11.4583 14.0625 12.4827 14.0625 13.75C14.0625 15.0173 13.0125 16.0417 11.7188 16.0417H10.5469C7.31719 16.0417 4.6875 18.6106 4.6875 21.7708V39.7329C5.75391 39.2356 6.94688 38.9583 8.20312 38.9583H11.7188C13.0125 38.9583 14.0625 39.9827 14.0625 41.25C14.0625 42.5173 13.0125 43.5417 11.7188 43.5417H8.20312C6.26484 43.5417 4.6875 45.084 4.6875 46.9792C4.6875 48.8744 6.26484 50.4167 8.20312 50.4167H26.9531C28.4953 50.4167 29.9531 49.8346 31.0523 48.7804C31.9781 47.8913 33.4594 47.9096 34.3664 48.8125Z" fill="#1d4ed8"/>
</g>
<defs>
<clipPath id="clip0_28_1029">
<rect width="56.25" height="55" fill="white"/>
</clipPath>
</defs>
</svg>
