<svg width="55" height="55" viewBox="0 0 55 55" fill="none" xmlns="http://www.w3.org/2000/svg">
<g clip-path="url(#clip0_28_1039)">
<path d="M54.8327 46.1201L45.7325 5.49113C44.9098 1.79009 41.2202 -0.545117 37.526 0.277591L35.2894 0.777174C34.2215 1.01551 33.2681 1.49217 32.4706 2.13842C31.2171 0.8253 29.4525 0.00488281 27.4977 0.00488281H13.7477C9.95729 0.00488281 6.87271 3.08947 6.87271 6.87988V11.4632C6.87271 12.7282 7.89708 13.7549 9.16438 13.7549C10.4317 13.7549 11.456 12.7282 11.456 11.4632V6.87988C11.456 5.61717 12.4827 4.58822 13.7477 4.58822H18.331V18.3382C18.331 19.6032 19.3554 20.6299 20.6227 20.6299C21.89 20.6299 22.9144 19.6032 22.9144 18.3382V16.0466H29.7894V38.9632H22.9144V36.6716C22.9144 35.4066 21.89 34.3799 20.6227 34.3799C19.3554 34.3799 18.331 35.4066 18.331 36.6716V50.4216H13.7477C12.4827 50.4216 11.456 49.3926 11.456 48.1299V43.5466C11.456 42.2816 10.4317 41.2549 9.16438 41.2549C7.89708 41.2549 6.87271 42.2816 6.87271 43.5466V48.1299C6.87271 51.9203 9.95729 55.0049 13.7477 55.0049H27.4977C31.2881 55.0049 34.3727 51.9203 34.3727 48.1299V28.1786L39.1783 49.6378C39.8956 52.8301 42.7442 55.0072 45.8883 55.0072C46.381 55.0072 46.8829 54.9545 47.3825 54.8422L49.6192 54.3426C51.4135 53.9415 52.9444 52.8668 53.9298 51.3153C54.9152 49.7616 55.2338 47.9191 54.8327 46.1247V46.1201ZM36.559 16.9541L43.269 15.453L48.4642 38.6493L41.7519 40.148L36.5567 16.9541H36.559ZM36.2885 5.24822C36.2885 5.24822 38.8598 4.69363 39.0271 4.69363C39.4579 4.69363 39.8796 4.81509 40.2508 5.05113C40.7687 5.38113 41.1263 5.88988 41.2592 6.48801L42.2652 10.9797L35.5552 12.4807L34.5492 7.98447C34.2765 6.74926 35.0556 5.52322 36.2885 5.24822ZM22.9167 11.4586V4.58363H27.5C28.765 4.58363 29.7917 5.61259 29.7917 6.8753V11.4586H22.9167ZM27.5 50.417H22.9167V43.542H29.7917V48.1253C29.7917 49.388 28.765 50.417 27.5 50.417ZM50.0592 48.8518C49.7315 49.3697 49.2227 49.7272 48.6223 49.8601L46.3856 50.3597C45.155 50.6278 43.929 49.8578 43.6517 48.6272L42.7533 44.619L49.4656 43.1226L50.3617 47.1216C50.4969 47.7197 50.3892 48.3361 50.0592 48.8518ZM6.875 29.792H2.29167C1.02438 29.792 0 28.7653 0 27.5003C0 26.2353 1.02438 25.2086 2.29167 25.2086H6.875V20.6253C6.875 19.3603 7.89938 18.3336 9.16667 18.3336C10.434 18.3336 11.4583 19.3603 11.4583 20.6253V25.2086H16.0417C17.309 25.2086 18.3333 26.2353 18.3333 27.5003C18.3333 28.7653 17.309 29.792 16.0417 29.792H11.4583V34.3753C11.4583 35.6403 10.434 36.667 9.16667 36.667C7.89938 36.667 6.875 35.6403 6.875 34.3753V29.792Z" fill="#1d4ed8"/>
</g>
<defs>
<clipPath id="clip0_28_1039">
<rect width="55" height="55" fill="white"/>
</clipPath>
</defs>
</svg>
