<svg width="55" height="55" viewBox="0 0 55 55" fill="none" xmlns="http://www.w3.org/2000/svg">
<g clip-path="url(#clip0_28_1049)">
<path d="M43.5417 9.16667H41.0208C40.4889 6.58032 39.0817 4.25642 37.0362 2.58665C34.9907 0.916873 32.4321 0.00333328 29.7917 0L25.2083 0C22.5679 0.00333328 20.0093 0.916873 17.9638 2.58665C15.9183 4.25642 14.5111 6.58032 13.9792 9.16667H11.4583C8.42051 9.17031 5.50815 10.3787 3.36009 12.5268C1.21202 14.6748 0.00363884 17.5872 0 20.625L0 43.5417C0.00363884 46.5795 1.21202 49.4919 3.36009 51.6399C5.50815 53.788 8.42051 54.9964 11.4583 55H43.5417C46.5795 54.9964 49.4919 53.788 51.6399 51.6399C53.788 49.4919 54.9964 46.5795 55 43.5417V20.625C54.9964 17.5872 53.788 14.6748 51.6399 12.5268C49.4919 10.3787 46.5795 9.17031 43.5417 9.16667ZM25.2083 4.58333H29.7917C31.2085 4.58921 32.5889 5.03269 33.7441 5.85312C34.8993 6.67354 35.7727 7.83083 36.245 9.16667H18.755C19.2273 7.83083 20.1007 6.67354 21.2559 5.85312C22.4111 5.03269 23.7915 4.58921 25.2083 4.58333ZM11.4583 13.75H43.5417C45.365 13.75 47.1137 14.4743 48.403 15.7636C49.6923 17.053 50.4167 18.8016 50.4167 20.625V27.5H4.58333V20.625C4.58333 18.8016 5.30766 17.053 6.59697 15.7636C7.88629 14.4743 9.63497 13.75 11.4583 13.75ZM43.5417 50.4167H11.4583C9.63497 50.4167 7.88629 49.6923 6.59697 48.403C5.30766 47.1137 4.58333 45.365 4.58333 43.5417V32.0833H25.2083V34.375C25.2083 34.9828 25.4498 35.5657 25.8795 35.9955C26.3093 36.4252 26.8922 36.6667 27.5 36.6667C28.1078 36.6667 28.6907 36.4252 29.1205 35.9955C29.5502 35.5657 29.7917 34.9828 29.7917 34.375V32.0833H50.4167V43.5417C50.4167 45.365 49.6923 47.1137 48.403 48.403C47.1137 49.6923 45.365 50.4167 43.5417 50.4167Z" fill="#1d4ed8"/>
</g>
<defs>
<clipPath id="clip0_28_1049">
<rect width="55" height="55" fill="white"/>
</clipPath>
</defs>
</svg>
