<svg width="56" height="56" viewBox="0 0 56 56" fill="none" xmlns="http://www.w3.org/2000/svg">
<g clip-path="url(#clip0_32_3015)">
<path d="M56 28C56 29.2903 54.9547 30.3333 53.6667 30.3333H30.3333V53.6667C30.3333 54.957 29.288 56 28 56C26.712 56 25.6667 54.957 25.6667 53.6667V30.3333H2.33333C1.04533 30.3333 0 29.2903 0 28C0 26.7097 1.04533 25.6667 2.33333 25.6667H25.6667V2.33333C25.6667 1.043 26.712 0 28 0C29.288 0 30.3333 1.043 30.3333 2.33333V25.6667H53.6667C54.9547 25.6667 56 26.7097 56 28ZM53.6667 37.3333H39.6667C38.3787 37.3333 37.3333 38.3763 37.3333 39.6667C37.3333 40.957 38.3787 42 39.6667 42H53.6667C54.9547 42 56 40.957 56 39.6667C56 38.3763 54.9547 37.3333 53.6667 37.3333ZM53.6667 46.6667H39.6667C38.3787 46.6667 37.3333 47.7097 37.3333 49C37.3333 50.2903 38.3787 51.3333 39.6667 51.3333H53.6667C54.9547 51.3333 56 50.2903 56 49C56 47.7097 54.9547 46.6667 53.6667 46.6667ZM2.33333 14H16.3333C17.6213 14 18.6667 12.957 18.6667 11.6667C18.6667 10.3763 17.6213 9.33333 16.3333 9.33333H2.33333C1.04533 9.33333 0 10.3763 0 11.6667C0 12.957 1.04533 14 2.33333 14ZM39.6667 14H44.3333V18.6667C44.3333 19.957 45.3787 21 46.6667 21C47.9547 21 49 19.957 49 18.6667V14H53.6667C54.9547 14 56 12.957 56 11.6667C56 10.3763 54.9547 9.33333 53.6667 9.33333H49V4.66667C49 3.37633 47.9547 2.33333 46.6667 2.33333C45.3787 2.33333 44.3333 3.37633 44.3333 4.66667V9.33333H39.6667C38.3787 9.33333 37.3333 10.3763 37.3333 11.6667C37.3333 12.957 38.3787 14 39.6667 14ZM17.983 38.017C17.0707 37.1047 15.596 37.1047 14.6837 38.017L10.5 42.2007L6.31633 38.017C5.404 37.1047 3.92933 37.1047 3.017 38.017C2.10467 38.9293 2.10467 40.404 3.017 41.3163L7.20067 45.5L3.017 49.6837C2.10467 50.596 2.10467 52.0707 3.017 52.983C3.472 53.438 4.06933 53.6667 4.66667 53.6667C5.264 53.6667 5.86133 53.438 6.31633 52.983L10.5 48.7993L14.6837 52.983C15.1387 53.438 15.736 53.6667 16.3333 53.6667C16.9307 53.6667 17.528 53.438 17.983 52.983C18.8953 52.0707 18.8953 50.596 17.983 49.6837L13.7993 45.5L17.983 41.3163C18.8953 40.404 18.8953 38.9293 17.983 38.017Z" fill="#D82427"/>
</g>
<defs>
<clipPath id="clip0_32_3015">
<rect width="56" height="56" fill="white"/>
</clipPath>
</defs>
</svg>
