<svg width="55" height="55" viewBox="0 0 55 55" fill="none" xmlns="http://www.w3.org/2000/svg">
<g clip-path="url(#clip0_46_824)">
<path d="M16.0417 32.0833C21.1063 32.0833 25.2083 27.9813 25.2083 22.9167C25.2083 17.8521 21.1063 13.75 16.0417 13.75C10.9771 13.75 6.875 17.8521 6.875 22.9167C6.875 27.9813 10.9771 32.0833 16.0417 32.0833ZM16.0417 18.3333C18.5625 18.3333 20.625 20.3958 20.625 22.9167C20.625 25.4375 18.5625 27.5 16.0417 27.5C13.5208 27.5 11.4583 25.4375 11.4583 22.9167C11.4583 20.3958 13.5208 18.3333 16.0417 18.3333ZM32.0833 52.7083C32.0833 53.9688 31.0521 55 29.7917 55C28.5313 55 27.5 53.9688 27.5 52.7083C27.5 46.3833 22.3667 41.25 16.0417 41.25C9.71667 41.25 4.58333 46.3833 4.58333 52.7083C4.58333 53.9688 3.55208 55 2.29167 55C1.03125 55 0 53.9688 0 52.7083C0 43.8625 7.19583 36.6667 16.0417 36.6667C24.8875 36.6667 32.0833 43.8625 32.0833 52.7083ZM55 11.4583V29.7917C55 36.1167 49.8667 41.25 43.5417 41.25H34.375C33.1146 41.25 32.0833 40.2188 32.0833 38.9583C32.0833 37.6979 33.1146 36.6667 34.375 36.6667H43.5417C47.3229 36.6667 50.4167 33.5729 50.4167 29.7917V11.4583C50.4167 7.67708 47.3229 4.58333 43.5417 4.58333H21.6792C19.2271 4.58333 16.9583 5.9125 15.7208 8.02083C15.0792 9.12083 13.6812 9.4875 12.5813 8.86875C11.4812 8.22708 11.1146 6.82917 11.7563 5.72917C13.8188 2.2 17.6229 0 21.6792 0H43.5417C49.8667 0 55 5.13333 55 11.4583ZM31.3271 25.025L38.0188 18.3333H34.375C33.1146 18.3333 32.0833 17.3021 32.0833 16.0417C32.0833 14.7813 33.1146 13.75 34.375 13.75H41.25C43.7708 13.75 45.8333 15.8125 45.8333 18.3333V25.2083C45.8333 26.4688 44.8021 27.5 43.5417 27.5C42.2812 27.5 41.25 26.4688 41.25 25.2083V21.5646L34.5583 28.2563C33.5042 29.3104 32.0833 29.8833 30.6396 29.8833C30.1354 29.8833 29.6313 29.8146 29.1271 29.6771C27.9125 29.3333 27.2021 28.0729 27.5458 26.8583C27.8896 25.6438 29.15 24.9333 30.3875 25.2771C30.6625 25.3458 31.0292 25.3229 31.3271 25.025Z" fill="#D82427"/>
</g>
<defs>
<clipPath id="clip0_46_824">
<rect width="55" height="55" fill="white"/>
</clipPath>
</defs>
</svg>
