<svg width="56" height="56" viewBox="0 0 56 56" fill="none" xmlns="http://www.w3.org/2000/svg">
<g clip-path="url(#clip0_32_3039)">
<path d="M43.6636 28H32.6666C31.4289 28 30.242 27.5084 29.3668 26.6332C28.4916 25.758 28 24.571 28 23.3333V12.306C28.0031 11.2326 27.7594 10.1729 27.2877 9.20877C26.8159 8.24462 26.1287 7.40187 25.2793 6.74569C24.4744 6.10825 23.5337 5.66436 22.5299 5.44832C21.5262 5.23227 20.4862 5.24985 19.4903 5.49969C13.8335 6.90391 8.82539 10.1968 5.29422 14.8339C1.76305 19.4709 -0.0796747 25.1743 0.0707913 31.0008C0.221257 36.8274 2.3559 42.4281 6.1217 46.8767C9.8875 51.3253 15.0589 54.3553 20.7806 55.4657C27.2139 56.6971 33.8745 55.4223 39.3984 51.9025C44.9223 48.3827 48.8916 42.8842 50.4933 36.533C50.7441 35.5358 50.7623 34.4944 50.5467 33.489C50.3311 32.4837 49.8873 31.5413 49.2496 30.7347C48.5857 29.8864 47.7381 29.1996 46.7706 28.726C45.8031 28.2524 44.7408 28.0041 43.6636 28ZM45.969 35.392C45.0756 38.9897 43.2426 42.2855 40.6575 44.9424C38.0724 47.5992 34.828 49.5218 31.2562 50.5134C27.6843 51.5049 23.9131 51.53 20.3284 50.5859C16.7437 49.6419 13.4741 47.7626 10.8539 45.1403C8.23381 42.518 6.35723 39.2468 5.41613 35.6613C4.47504 32.0758 4.5032 28.3046 5.49775 24.7336C6.49229 21.1626 8.41752 17.9198 11.0765 15.3369C13.7355 12.754 17.0329 10.9238 20.6313 10.0334C20.9391 9.95644 21.2607 9.95268 21.5703 10.0224C21.8798 10.0921 22.1688 10.2333 22.414 10.4347C22.7035 10.6554 22.9383 10.9399 23.1002 11.2661C23.262 11.5922 23.3466 11.9513 23.3473 12.3154V23.3333C23.3473 25.8087 24.3306 28.1827 26.081 29.933C27.8313 31.6834 30.2053 32.6667 32.6806 32.6667H43.6753C44.0426 32.6682 44.4047 32.7529 44.7345 32.9146C45.0643 33.0763 45.3531 33.3106 45.5793 33.6C45.7776 33.8486 45.9158 34.1397 45.983 34.4506C46.0502 34.7615 46.0469 35.0837 45.969 35.392Z" fill="#D82427"/>
<path d="M55.1856 17.374C54.1113 13.4247 52.0245 9.82448 49.1315 6.92946C46.2385 4.03444 42.6397 1.94502 38.6913 0.867979C38.2773 0.756701 37.8506 0.700219 37.4219 0.699979C36.8054 0.694121 36.1938 0.810504 35.6225 1.0424C35.0511 1.2743 34.5315 1.61712 34.0934 2.05104C33.6554 2.48496 33.3076 3.00139 33.0704 3.57049C32.8331 4.13958 32.7109 4.75006 32.7109 5.36664V16.3333C32.7109 18.1898 33.4484 19.9703 34.7612 21.2831C36.0739 22.5958 37.8544 23.3333 39.7109 23.3333H50.7219C51.4422 23.3264 52.1511 23.1535 52.7936 22.8281C53.4362 22.5027 53.9951 22.0335 54.4269 21.457C54.8587 20.8806 55.1518 20.2123 55.2833 19.5042C55.4149 18.796 55.3815 18.0671 55.1856 17.374ZM49.3569 18.6666H39.7016C39.0828 18.6666 38.4893 18.4208 38.0517 17.9832C37.6141 17.5456 37.3683 16.9521 37.3683 16.3333L37.3496 5.38298C37.3667 5.37063 37.3869 5.36335 37.4079 5.36198H37.4686C40.6468 6.22784 43.5424 7.9121 45.8663 10.2467C48.1903 12.5812 49.8613 15.4845 50.7126 18.6666H49.3569Z" fill="#D82427"/>
</g>
<defs>
<clipPath id="clip0_32_3039">
<rect width="56" height="56" fill="white"/>
</clipPath>
</defs>
</svg>
