<svg width="55" height="55" viewBox="0 0 55 55" fill="none" xmlns="http://www.w3.org/2000/svg">
<g clip-path="url(#clip0_46_817)">
<path d="M37.8125 0C28.1738 0 20.625 4.53063 20.625 10.3125V16.241C19.5181 16.1104 18.3677 16.0417 17.1875 16.0417C7.54875 16.0417 0 20.5723 0 26.3542V44.6875C0 50.4694 7.54875 55 17.1875 55C24.9952 55 31.4325 52.0277 33.5958 47.8248C34.9663 48.0242 36.3779 48.125 37.8125 48.125C47.4513 48.125 55 43.5944 55 37.8125V10.3125C55 4.53063 47.4513 0 37.8125 0ZM50.4167 28.6458C50.4167 31.35 45.0267 34.375 37.8125 34.375C36.6392 34.375 35.4888 34.2948 34.375 34.139V29.5923C35.4979 29.7229 36.6483 29.7917 37.8125 29.7917C42.8404 29.7917 47.3 28.5588 50.4167 26.5581V28.6458ZM4.58333 33.4331C7.7 35.4338 12.1596 36.6667 17.1875 36.6667C22.2154 36.6667 26.675 35.4338 29.7917 33.4331V35.5208C29.7917 38.225 24.4017 41.25 17.1875 41.25C9.97333 41.25 4.58333 38.225 4.58333 35.5208V33.4331ZM50.4167 19.4792C50.4167 22.1833 45.0267 25.2083 37.8125 25.2083C36.5865 25.2083 35.3833 25.1213 34.2238 24.9517C33.7815 22.919 32.3904 21.0925 30.3142 19.6281C32.5692 20.2698 35.1083 20.625 37.8125 20.625C42.8404 20.625 47.3 19.3921 50.4167 17.3915V19.4792ZM37.8125 4.58333C45.0267 4.58333 50.4167 7.60833 50.4167 10.3125C50.4167 13.0167 45.0267 16.0417 37.8125 16.0417C30.5983 16.0417 25.2083 13.0167 25.2083 10.3125C25.2083 7.60833 30.5983 4.58333 37.8125 4.58333ZM17.1875 20.625C24.4017 20.625 29.7917 23.65 29.7917 26.3542C29.7917 29.0583 24.4017 32.0833 17.1875 32.0833C9.97333 32.0833 4.58333 29.0583 4.58333 26.3542C4.58333 23.65 9.97333 20.625 17.1875 20.625ZM17.1875 50.4167C9.97333 50.4167 4.58333 47.3917 4.58333 44.6875V42.5998C7.7 44.6004 12.1596 45.8333 17.1875 45.8333C22.2154 45.8333 26.675 44.6004 29.7917 42.5998V44.6875C29.7917 47.3917 24.4017 50.4167 17.1875 50.4167ZM37.8125 43.5417C36.6392 43.5417 35.4888 43.4615 34.375 43.3056V38.759C35.4979 38.8896 36.6483 38.9583 37.8125 38.9583C42.8404 38.9583 47.3 37.7254 50.4167 35.7248V37.8125C50.4167 40.5167 45.0267 43.5417 37.8125 43.5417Z" fill="#D82427"/>
</g>
<defs>
<clipPath id="clip0_46_817">
<rect width="55" height="55" fill="white"/>
</clipPath>
</defs>
</svg>
