<svg width="56" height="57" viewBox="0 0 56 57" fill="none" xmlns="http://www.w3.org/2000/svg">
<g clip-path="url(#clip0_32_3020)">
<path d="M47.502 17.8879L55.055 7.86161C56.126 6.44061 56.2987 4.56461 55.503 2.97094C54.7073 1.37727 53.109 0.387939 51.3263 0.387939H9.33333C4.186 0.387939 0 4.57394 0 9.72127V54.0546C0 55.3449 1.04533 56.3879 2.33333 56.3879C3.62133 56.3879 4.66667 55.3449 4.66667 54.0546V35.3879H51.3287C53.1113 35.3879 54.7097 34.3963 55.5053 32.8049C56.301 31.2136 56.1283 29.3376 55.0573 27.9143L47.502 17.8879ZM4.66667 30.7213V9.72127C4.66667 7.14761 6.75967 5.05461 9.33333 5.05461H51.3287L42.7187 16.4833C42.0933 17.3139 42.0933 18.4596 42.7187 19.2903L51.3287 30.7189H4.66667V30.7213Z" fill="#D82427"/>
</g>
<defs>
<clipPath id="clip0_32_3020">
<rect width="56" height="56" fill="white" transform="translate(0 0.387939)"/>
</clipPath>
</defs>
</svg>
