<svg width="56" height="57" viewBox="0 0 56 57" fill="none" xmlns="http://www.w3.org/2000/svg">
<g clip-path="url(#clip0_32_3034)">
<path d="M44.3333 2.72131H11.6667C8.57361 2.72502 5.6083 3.95537 3.42118 6.14249C1.23406 8.32962 0.003705 11.2949 0 14.388L0 33.0547C0.003705 36.1477 1.23406 39.113 3.42118 41.3001C5.6083 43.4873 8.57361 44.7176 11.6667 44.7213H25.6667V49.388H16.3333C15.7145 49.388 15.121 49.6338 14.6834 50.0714C14.2458 50.509 14 51.1025 14 51.7213C14 52.3402 14.2458 52.9337 14.6834 53.3712C15.121 53.8088 15.7145 54.0547 16.3333 54.0547H39.6667C40.2855 54.0547 40.879 53.8088 41.3166 53.3712C41.7542 52.9337 42 52.3402 42 51.7213C42 51.1025 41.7542 50.509 41.3166 50.0714C40.879 49.6338 40.2855 49.388 39.6667 49.388H30.3333V44.7213H44.3333C47.4264 44.7176 50.3917 43.4873 52.5788 41.3001C54.7659 39.113 55.9963 36.1477 56 33.0547V14.388C55.9963 11.2949 54.7659 8.32962 52.5788 6.14249C50.3917 3.95537 47.4264 2.72502 44.3333 2.72131ZM51.3333 33.0547C51.3333 34.9112 50.5958 36.6916 49.2831 38.0044C47.9703 39.3172 46.1898 40.0547 44.3333 40.0547H11.6667C9.81015 40.0547 8.02967 39.3172 6.71692 38.0044C5.40416 36.6916 4.66667 34.9112 4.66667 33.0547V14.388C4.66667 12.5315 5.40416 10.751 6.71692 9.43823C8.02967 8.12548 9.81015 7.38798 11.6667 7.38798H44.3333C46.1898 7.38798 47.9703 8.12548 49.2831 9.43823C50.5958 10.751 51.3333 12.5315 51.3333 14.388V33.0547ZM46.6667 23.7213C46.6667 24.3402 46.4208 24.9336 45.9832 25.3712C45.5457 25.8088 44.9522 26.0547 44.3333 26.0547H37.415L33.4483 32.0163C33.2345 32.3368 32.9447 32.5993 32.6047 32.7805C32.2648 32.9617 31.8852 33.0559 31.5 33.0547C31.451 33.0547 31.402 33.0547 31.3553 33.0547C30.9471 33.0295 30.5526 32.8975 30.2115 32.6718C29.8704 32.4462 29.5945 32.1348 29.4117 31.769L24.2107 21.36L21.7747 25.0163C21.5615 25.3358 21.2728 25.5977 20.9342 25.7788C20.5955 25.96 20.2174 26.0547 19.8333 26.0547H11.6667C11.0478 26.0547 10.4543 25.8088 10.0168 25.3712C9.57917 24.9336 9.33333 24.3402 9.33333 23.7213C9.33333 23.1025 9.57917 22.509 10.0168 22.0714C10.4543 21.6338 11.0478 21.388 11.6667 21.388H18.585L22.5517 15.4263C22.7762 15.0823 23.0887 14.8046 23.4567 14.622C23.8247 14.4395 24.2349 14.3586 24.6447 14.388C25.0529 14.4131 25.4474 14.5451 25.7885 14.7708C26.1296 14.9964 26.4055 15.3078 26.5883 15.6736L31.7893 26.078L34.2253 22.4216C34.439 22.103 34.728 21.842 35.0666 21.6617C35.4052 21.4814 35.783 21.3874 36.1667 21.388H44.3333C44.9522 21.388 45.5457 21.6338 45.9832 22.0714C46.4208 22.509 46.6667 23.1025 46.6667 23.7213Z" fill="#D82427"/>
</g>
<defs>
<clipPath id="clip0_32_3034">
<rect width="56" height="56" fill="white" transform="translate(0 0.387939)"/>
</clipPath>
</defs>
</svg>
