<svg width="56" height="57" viewBox="0 0 56 57" fill="none" xmlns="http://www.w3.org/2000/svg">
<g clip-path="url(#clip0_32_3045)">
<path d="M48.6743 36.16L39.8729 50.5217C38.9064 52.1084 37.5907 53.4537 36.0259 54.4552C34.4611 55.4567 32.6885 56.0882 30.8429 56.3014C30.3566 56.3591 29.8673 56.3879 29.3776 56.3877C26.8703 56.3843 24.4254 55.606 22.3776 54.1594C20.2614 55.7448 17.6473 56.5198 15.009 56.3439C12.3706 56.168 9.88252 55.0528 7.99552 53.2005C6.10851 51.3482 4.9474 48.8813 4.72257 46.2466C4.49774 43.612 5.22407 40.984 6.76994 38.8387L3.7016 35.775C2.39143 34.4648 1.39467 32.8751 0.785992 31.125C0.177309 29.3749 -0.0275283 27.5097 0.186821 25.6693C0.40117 23.8288 1.02915 22.0606 2.02373 20.4973C3.01831 18.9339 4.35372 17.6158 5.92994 16.6417L19.3863 8.32102C23.0314 5.98484 27.3181 4.85217 31.6415 5.08285C35.9649 5.31353 40.1067 6.89589 43.4826 9.60669L47.3536 5.73569C47.5688 5.51283 47.8263 5.33507 48.111 5.21278C48.3957 5.09049 48.7018 5.02613 49.0117 5.02343C49.3215 5.02074 49.6287 5.07978 49.9155 5.1971C50.2022 5.31442 50.4628 5.48768 50.6819 5.70676C50.9009 5.92585 51.0742 6.18637 51.1915 6.47313C51.3088 6.75989 51.3679 7.06714 51.3652 7.37696C51.3625 7.68677 51.2981 7.99295 51.1758 8.27763C51.0535 8.56231 50.8758 8.81978 50.6529 9.03502L46.7866 12.9037C49.3797 16.1523 50.9446 20.1007 51.2809 24.2437C51.6171 28.3867 50.7096 32.5358 48.6743 36.16ZM18.8216 50.8974L10.1439 42.2174C9.46582 43.4301 9.20427 44.8319 9.39942 46.2076C9.59456 47.5833 10.2356 48.857 11.2243 49.8334C12.2216 50.7807 13.4901 51.3926 14.8524 51.5834C16.2146 51.7742 17.6024 51.5343 18.8216 50.8974ZM41.9706 14.4974C39.3795 11.8813 35.9687 10.2344 32.3087 9.83218C28.6487 9.42995 24.9616 10.2968 21.8643 12.2877L8.3846 20.6084C7.40703 21.2126 6.57884 22.0302 5.96204 22.9999C5.34524 23.9696 4.95582 25.0663 4.82295 26.2079C4.69007 27.3494 4.81719 28.5062 5.19477 29.5917C5.57235 30.6771 6.19062 31.6631 7.00327 32.4757L24.0133 49.488C24.8272 50.3029 25.8153 50.9226 26.9033 51.3006C27.9913 51.6785 29.1508 51.8049 30.2946 51.6701C31.4385 51.5354 32.5369 51.143 33.5072 50.5226C34.4776 49.9021 35.2946 49.0698 35.8969 48.088L44.6586 33.7964C46.3699 30.7227 47.0332 27.1752 46.5482 23.6909C46.0632 20.2066 44.4563 16.9751 41.9706 14.4857V14.4974ZM44.9549 56.3877C44.4622 56.3886 43.9818 56.2335 43.5826 55.9446C43.1834 55.6556 42.8859 55.2477 42.7328 54.7794C42.5797 54.311 42.5788 53.8061 42.7303 53.3372C42.8818 52.8683 43.1778 52.4594 43.5759 52.169C47.6616 49.0973 50.4267 44.5872 51.3109 39.5527C51.3729 39.2496 51.4946 38.9619 51.6688 38.7063C51.843 38.4507 52.0663 38.2322 52.3257 38.0637C52.5851 37.8952 52.8755 37.7799 53.1798 37.7246C53.4842 37.6693 53.7965 37.6751 54.0986 37.7416C54.4008 37.8081 54.6866 37.9341 54.9396 38.1121C55.1926 38.2901 55.4077 38.5166 55.5723 38.7785C55.737 39.0404 55.8479 39.3324 55.8986 39.6376C55.9494 39.9428 55.9389 40.255 55.8679 40.556C54.7246 46.6966 51.3212 52.1855 46.3293 55.9397C45.9301 56.2308 45.4489 56.3876 44.9549 56.3877ZM2.3366 13.7787C1.90564 13.7768 1.48364 13.6555 1.11737 13.4284C0.751105 13.2013 0.454895 12.8772 0.261582 12.492C0.0682689 12.1068 -0.0145927 11.6757 0.0221846 11.2463C0.0589619 10.8169 0.213941 10.406 0.469938 10.0594C4.27556 4.97406 9.87751 1.53177 16.1336 0.43435C16.7401 0.310582 17.3709 0.432799 17.8872 0.774116C18.4036 1.11543 18.7632 1.64789 18.8869 2.25435C19.0107 2.86081 18.8885 3.4916 18.5472 4.00795C18.2059 4.5243 17.6734 4.88392 17.0669 5.00769C11.9289 5.85614 7.31881 8.66082 4.20327 12.8337C3.98715 13.1256 3.70586 13.3631 3.38179 13.5271C3.05773 13.6912 2.69983 13.7773 2.3366 13.7787Z" fill="#D82427"/>
</g>
<defs>
<clipPath id="clip0_32_3045">
<rect width="56" height="56" fill="white" transform="translate(0 0.387939)"/>
</clipPath>
</defs>
</svg>
