<svg width="56" height="56" viewBox="0 0 56 56" fill="none" xmlns="http://www.w3.org/2000/svg">
<g clip-path="url(#clip0_32_3025)">
<path d="M53.6667 51.3333H7C6.38116 51.3333 5.78767 51.0875 5.35008 50.6499C4.9125 50.2123 4.66667 49.6188 4.66667 49V2.33333C4.66667 1.71449 4.42083 1.121 3.98325 0.683417C3.54566 0.245833 2.95217 0 2.33333 0C1.71449 0 1.121 0.245833 0.683417 0.683417C0.245833 1.121 0 1.71449 0 2.33333L0 49C0 50.8565 0.737498 52.637 2.05025 53.9497C3.36301 55.2625 5.14348 56 7 56H53.6667C54.2855 56 54.879 55.7542 55.3166 55.3166C55.7542 54.879 56 54.2855 56 53.6667C56 53.0478 55.7542 52.4543 55.3166 52.0167C54.879 51.5792 54.2855 51.3333 53.6667 51.3333Z" fill="#D82427"/>
<path d="M35.0001 46.6667C35.6189 46.6667 36.2124 46.4209 36.65 45.9833C37.0876 45.5457 37.3334 44.9522 37.3334 44.3334V28C37.3334 27.3812 37.0876 26.7877 36.65 26.3501C36.2124 25.9125 35.6189 25.6667 35.0001 25.6667C34.3812 25.6667 33.7878 25.9125 33.3502 26.3501C32.9126 26.7877 32.6667 27.3812 32.6667 28V44.3334C32.6667 44.9522 32.9126 45.5457 33.3502 45.9833C33.7878 46.4209 34.3812 46.6667 35.0001 46.6667Z" fill="#D82427"/>
<path d="M16.3333 46.6667C16.9522 46.6667 17.5457 46.4209 17.9832 45.9833C18.4208 45.5457 18.6667 44.9522 18.6667 44.3334V28C18.6667 27.3812 18.4208 26.7877 17.9832 26.3501C17.5457 25.9125 16.9522 25.6667 16.3333 25.6667C15.7145 25.6667 15.121 25.9125 14.6834 26.3501C14.2458 26.7877 14 27.3812 14 28V44.3334C14 44.9522 14.2458 45.5457 14.6834 45.9833C15.121 46.4209 15.7145 46.6667 16.3333 46.6667Z" fill="#D82427"/>
<path d="M44.3333 46.6667C44.9522 46.6667 45.5457 46.4209 45.9832 45.9833C46.4208 45.5457 46.6667 44.9522 46.6667 44.3334V16.3333C46.6667 15.7145 46.4208 15.121 45.9832 14.6834C45.5457 14.2458 44.9522 14 44.3333 14C43.7145 14 43.121 14.2458 42.6834 14.6834C42.2458 15.121 42 15.7145 42 16.3333V44.3334C42 44.9522 42.2458 45.5457 42.6834 45.9833C43.121 46.4209 43.7145 46.6667 44.3333 46.6667Z" fill="#D82427"/>
<path d="M25.6666 46.6667C26.2854 46.6667 26.8789 46.4209 27.3165 45.9833C27.7541 45.5457 27.9999 44.9522 27.9999 44.3334V16.3333C27.9999 15.7145 27.7541 15.121 27.3165 14.6834C26.8789 14.2458 26.2854 14 25.6666 14C25.0477 14 24.4543 14.2458 24.0167 14.6834C23.5791 15.121 23.3333 15.7145 23.3333 16.3333V44.3334C23.3333 44.9522 23.5791 45.5457 24.0167 45.9833C24.4543 46.4209 25.0477 46.6667 25.6666 46.6667Z" fill="#D82427"/>
</g>
<defs>
<clipPath id="clip0_32_3025">
<rect width="56" height="56" fill="white"/>
</clipPath>
</defs>
</svg>
